<svg width="48" height="48" viewBox="0 0 48 48" fill="none" xmlns="http://www.w3.org/2000/svg">
<rect width="48" height="48" fill="#292929"/>
<rect x="13" y="8" width="8" height="32" fill="#D9D9D9"/>
<rect x="13" y="8" width="26" height="7" fill="#D9D9D9"/>
<rect x="13" y="22" width="26" height="7" fill="#D9D9D9"/>
<rect x="13" y="8" width="16" height="7" fill="#06AA8D"/>
<rect x="29" y="8" width="10" height="7" fill="#C45354"/>
<rect x="13" y="15" width="8" height="14" fill="#EDC36E"/>
<rect x="13" y="29" width="8" height="11" fill="#9DDBAD"/>
<rect x="21" y="22" width="6" height="7" fill="#C45354"/>
<rect x="27" y="22" width="9" height="7" fill="#9DDBAD"/>
<path d="M29 8L32 15H26L29 8Z" fill="#9DDBAD"/>
<path d="M21.3045 14.9929L13.0328 18.0382L13 12.0383L21.3045 14.9929Z" fill="#9DDBAD"/>
<path d="M39 7L43.3301 15.25H34.6699L39 7Z" fill="#292929"/>
<path d="M36 22L40.3301 30.25H31.6699L36 22Z" fill="#292929"/>
<path d="M39.9998 30.0484L35.7506 21.7564L44.4105 21.8412L39.9998 30.0484Z" fill="#292929"/>
<path d="M27.05 22.0088L29.6481 28.9785L24.4117 28.9634L27.05 22.0088Z" fill="#06AA8D"/>
<path d="M21 29L13 32V26L21 29Z" fill="#06AA8D"/>
<path d="M23.637 37.277L23.616 36.752C23.616 36.5327 23.6673 36.423 23.77 36.423C23.8587 36.423 23.9427 36.4813 24.022 36.598C24.106 36.71 24.148 36.8453 24.148 37.004C24.148 37.158 24.1433 37.2747 24.134 37.354C24.54 36.738 24.925 36.43 25.289 36.43C25.5177 36.43 25.632 36.486 25.632 36.598C25.632 36.654 25.6063 36.7053 25.555 36.752C25.5037 36.7987 25.422 36.8523 25.31 36.913C25.0627 37.0203 24.8527 37.186 24.68 37.41C24.512 37.6293 24.3743 37.879 24.267 38.159C24.1597 38.439 24.0733 38.6747 24.008 38.866C23.9473 39.0573 23.9007 39.2067 23.868 39.314C23.8353 39.4213 23.798 39.5263 23.756 39.629C23.6813 39.8157 23.595 39.909 23.497 39.909C23.4177 39.909 23.3523 39.8647 23.301 39.776C23.2543 39.6827 23.231 39.594 23.231 39.51C23.231 39.4213 23.2707 39.2487 23.35 38.992C23.5413 38.404 23.637 37.8323 23.637 37.277ZM26.4304 35.429C26.4304 35.3357 26.4677 35.247 26.5424 35.163C26.617 35.079 26.6917 35.037 26.7664 35.037C26.8457 35.037 26.939 35.1327 27.0464 35.324C27.1537 35.5107 27.2074 35.667 27.2074 35.793C27.2074 35.8397 27.1864 35.8817 27.1444 35.919C27.1024 35.9563 27.058 35.975 27.0114 35.975C26.8994 35.975 26.7734 35.9073 26.6334 35.772C26.498 35.6367 26.4304 35.5223 26.4304 35.429ZM26.3954 36.423C26.484 36.423 26.568 36.4767 26.6474 36.584C26.7267 36.6913 26.7664 36.7963 26.7664 36.899C26.7664 37.0017 26.6987 37.3097 26.5634 37.823C26.428 38.3317 26.2577 38.9033 26.0524 39.538C25.973 39.7713 25.8727 39.888 25.7514 39.888C25.686 39.888 25.63 39.8623 25.5834 39.811C25.5367 39.755 25.5134 39.6943 25.5134 39.629C25.5134 39.559 25.5297 39.4517 25.5624 39.307C25.5997 39.1577 25.651 38.9617 25.7164 38.719C25.7864 38.4717 25.84 38.271 25.8774 38.117C25.9194 37.963 25.9614 37.7903 26.0034 37.599C26.0454 37.403 26.078 37.2467 26.1014 37.13C26.1294 37.0087 26.1597 36.8873 26.1924 36.766C26.2577 36.5373 26.3254 36.423 26.3954 36.423ZM30.1984 34.463C30.273 34.463 30.364 34.533 30.4714 34.673C30.5834 34.8083 30.6394 34.9367 30.6394 35.058C30.6394 35.1793 30.581 35.5247 30.4644 36.094C30.3477 36.6587 30.2124 37.2443 30.0584 37.851C29.7224 39.2137 29.5007 39.895 29.3934 39.895C29.328 39.895 29.2557 39.8553 29.1764 39.776C29.1017 39.692 29.0644 39.6197 29.0644 39.559C29.0644 39.4983 29.0807 39.377 29.1134 39.195C28.656 39.6617 28.257 39.895 27.9164 39.895C27.711 39.895 27.5244 39.8017 27.3564 39.615C27.193 39.4283 27.1114 39.2347 27.1114 39.034C27.1114 38.7447 27.1884 38.4017 27.3424 38.005C27.501 37.6037 27.7274 37.2397 28.0214 36.913C28.3154 36.5863 28.628 36.423 28.9594 36.423C29.2907 36.423 29.5217 36.6213 29.6524 37.018C29.8904 36.0287 30.021 35.247 30.0444 34.673C30.0444 34.533 30.0957 34.463 30.1984 34.463ZM29.4284 37.9C29.4284 37.648 29.384 37.4357 29.2954 37.263C29.2114 37.0903 29.1087 37.004 28.9874 37.004C28.7867 37.004 28.5814 37.1277 28.3714 37.375C28.1614 37.6223 27.9934 37.907 27.8674 38.229C27.746 38.5463 27.6854 38.8217 27.6854 39.055C27.6854 39.139 27.7157 39.2067 27.7764 39.258C27.837 39.3093 27.9094 39.335 27.9934 39.335C28.1754 39.335 28.4204 39.2043 28.7284 38.943C29.041 38.6817 29.2674 38.3737 29.4074 38.019L29.4284 37.935V37.9ZM33.4675 38.005C33.4675 38.1917 33.3858 38.404 33.2225 38.642C33.0965 38.9267 32.9612 39.3373 32.8165 39.874C32.6718 40.406 32.5505 40.7863 32.4525 41.015C32.2565 41.491 31.9555 41.729 31.5495 41.729C31.2182 41.729 30.9382 41.638 30.7095 41.456C30.4855 41.2787 30.3735 41.1013 30.3735 40.924C30.3735 40.8493 30.3968 40.7747 30.4435 40.7C30.4855 40.6253 30.5298 40.588 30.5765 40.588C30.6278 40.588 30.6838 40.623 30.7445 40.693C30.8052 40.763 30.8612 40.8377 30.9125 40.917C30.9685 41.001 31.0502 41.078 31.1575 41.148C31.2695 41.218 31.3768 41.253 31.4795 41.253C31.5822 41.253 31.6592 41.2367 31.7105 41.204C31.7618 41.176 31.8108 41.127 31.8575 41.057C31.9042 40.9917 31.9438 40.924 31.9765 40.854C32.0092 40.7887 32.0442 40.693 32.0815 40.567C32.1235 40.4457 32.1562 40.3407 32.1795 40.252C32.2028 40.1633 32.2355 40.0397 32.2775 39.881C32.3195 39.7177 32.3545 39.587 32.3825 39.489C32.0185 39.7597 31.7222 39.895 31.4935 39.895C31.2648 39.895 31.0665 39.804 30.8985 39.622C30.7305 39.4353 30.6465 39.2207 30.6465 38.978C30.6465 38.7307 30.7375 38.404 30.9195 37.998C31.1062 37.592 31.3558 37.228 31.6685 36.906C31.9812 36.584 32.2868 36.423 32.5855 36.423C32.7768 36.423 32.9378 36.4953 33.0685 36.64C33.2832 36.878 33.3905 37.2163 33.3905 37.655C33.3905 37.711 33.3882 37.7507 33.3835 37.774C33.4395 37.8533 33.4675 37.9303 33.4675 38.005ZM31.2135 39.048C31.2135 39.1273 31.2392 39.1927 31.2905 39.244C31.3418 39.2907 31.4072 39.314 31.4865 39.314C31.7198 39.314 31.9952 39.1763 32.3125 38.901C32.6298 38.621 32.8538 38.2967 32.9845 37.928C32.9658 37.8673 32.9495 37.774 32.9355 37.648C32.9215 37.522 32.9075 37.4217 32.8935 37.347C32.8795 37.2723 32.8492 37.1977 32.8025 37.123C32.7558 37.0437 32.6952 37.004 32.6205 37.004C32.4385 37.004 32.2332 37.1347 32.0045 37.396C31.7758 37.6573 31.5868 37.949 31.4375 38.271C31.2882 38.593 31.2135 38.852 31.2135 39.048ZM36.8108 37.585C36.8108 37.8323 36.6754 38.0353 36.4048 38.194C36.1388 38.348 35.8354 38.425 35.4948 38.425C35.1588 38.425 34.8531 38.3877 34.5778 38.313C34.5124 38.5183 34.4798 38.7027 34.4798 38.866C34.4798 39.0247 34.5288 39.1483 34.6268 39.237C34.7294 39.3257 34.8951 39.37 35.1238 39.37C35.3571 39.37 35.5951 39.3303 35.8378 39.251C36.0851 39.167 36.2204 39.125 36.2438 39.125C36.3651 39.125 36.4258 39.1717 36.4258 39.265C36.4258 39.391 36.2834 39.5287 35.9988 39.678C35.7141 39.8227 35.4364 39.895 35.1658 39.895C34.8018 39.895 34.5054 39.7877 34.2768 39.573C34.0481 39.3537 33.9338 39.0783 33.9338 38.747C33.9338 38.4157 34.0224 38.0703 34.1998 37.711C34.3771 37.347 34.6058 37.0413 34.8858 36.794C35.1658 36.5467 35.4434 36.423 35.7188 36.423C35.9941 36.423 36.2438 36.5537 36.4678 36.815C36.6964 37.0763 36.8108 37.333 36.8108 37.585ZM35.7538 36.976C35.5811 36.976 35.4014 37.067 35.2148 37.249C35.0281 37.4263 34.8694 37.648 34.7388 37.914C34.9254 37.956 35.1378 37.977 35.3758 37.977C35.6138 37.977 35.8214 37.9397 35.9988 37.865C36.1761 37.7857 36.2648 37.683 36.2648 37.557C36.2648 37.431 36.2064 37.3027 36.0898 37.172C35.9778 37.0413 35.8658 36.976 35.7538 36.976Z" fill="white"/>
</svg>
